# Blender v2.77 (sub 0) OBJ File: ''
# www.blender.org
mtllib Item Bag.mtl
o Mesh_0342
v 0.107157 -0.473200 -0.103756
v 0.000000 -0.500603 -0.000000
v 0.151543 -0.473200 -0.000000
v 0.000000 -0.473200 -0.146733
v -0.107157 -0.473200 -0.103756
v -0.151543 -0.473200 -0.000000
v -0.107157 -0.473200 0.103756
v 0.000000 -0.473200 0.146733
v 0.107157 -0.473200 0.103756
v 0.280014 -0.395162 -0.000000
v 0.198000 -0.395162 -0.191716
v 0.365856 -0.278369 -0.000000
v 0.258699 -0.278369 -0.250490
v 0.396000 -0.140603 -0.000000
v 0.280014 -0.140603 -0.271128
v 0.292685 0.074429 0.000000
v 0.206960 0.074429 -0.200392
v 0.162917 0.259255 0.000000
v 0.115200 0.259255 -0.111544
v 0.338574 0.426542 0.000000
v 0.249383 0.502545 -0.241469
v 0.000000 -0.395162 -0.271128
v 0.000000 -0.278369 -0.354246
v 0.000000 -0.140603 -0.383433
v 0.000000 0.074429 -0.283396
v 0.000000 0.259255 -0.157747
v 0.000000 0.426542 -0.327829
v -0.198000 -0.395162 -0.191716
v -0.258699 -0.278369 -0.250489
v -0.280014 -0.140603 -0.271128
v -0.206960 0.074429 -0.200392
v -0.115200 0.259255 -0.111544
v -0.249383 0.502545 -0.241469
v -0.280014 -0.395162 -0.000000
v -0.365856 -0.278369 -0.000000
v -0.396000 -0.140603 -0.000000
v -0.292685 0.074429 0.000000
v -0.162917 0.259255 0.000000
v -0.338574 0.426542 0.000000
v -0.198000 -0.395162 0.191716
v -0.258699 -0.278369 0.250489
v -0.280014 -0.140603 0.271128
v -0.206960 0.074429 0.200392
v -0.115200 0.259255 0.111544
v -0.249383 0.502545 0.241469
v 0.000000 -0.395162 0.271128
v 0.000000 -0.278369 0.354246
v 0.000000 -0.140603 0.383433
v 0.000000 0.074429 0.283396
v 0.000000 0.259255 0.157747
v 0.000000 0.426542 0.327829
v 0.198000 -0.395162 0.191716
v 0.258699 -0.278369 0.250489
v 0.280014 -0.140603 0.271128
v 0.206960 0.074429 0.200392
v 0.115200 0.259255 0.111544
v 0.249383 0.502545 0.241469
vt 4.4322 -2.9180
vt 4.0000 -2.9180
vt 4.0000 -3.0000
vt 1.0000 -2.9180
vt 0.4322 -2.9180
vt 0.0000 -3.0000
vt 1.5678 -2.9180
vt 2.0000 -2.9180
vt 2.4322 -2.9180
vt 3.0000 -2.9180
vt 3.5678 -2.9180
vt 4.4322 -2.6847
vt 4.0000 -2.6847
vt 4.4322 -2.3354
vt 4.0000 -2.3354
vt 4.4322 -1.9234
vt 4.0000 -1.9234
vt 4.4322 -1.2803
vt 4.0000 -1.2803
vt 4.4322 -0.7276
vt 4.0000 -0.7276
vt 4.4322 0.0000
vt 4.0000 -0.2273
vt 1.0000 -2.6847
vt 0.4322 -2.6847
vt 1.0000 -2.3354
vt 0.4322 -2.3354
vt 1.0000 -1.9234
vt 0.4322 -1.9234
vt 1.0000 -1.2803
vt 0.4322 -1.2803
vt 1.0000 -0.7276
vt 0.4322 -0.7276
vt 1.0000 -0.2273
vt 0.4322 0.0000
vt 1.5678 -2.6847
vt 1.5678 -2.3354
vt 1.5678 -1.9234
vt 1.5678 -1.2803
vt 1.5678 -0.7276
vt 1.5678 0.0000
vt 2.0000 -2.6847
vt 2.0000 -2.3354
vt 2.0000 -1.9234
vt 2.0000 -1.2803
vt 2.0000 -0.7276
vt 2.0000 -0.2273
vt 2.4322 -2.6847
vt 2.4322 -2.3354
vt 2.4322 -1.9234
vt 2.4322 -1.2803
vt 2.4322 -0.7276
vt 2.4322 0.0000
vt 3.0000 -2.6847
vt 3.0000 -2.3354
vt 3.0000 -1.9234
vt 3.0000 -1.2803
vt 3.0000 -0.7276
vt 3.0000 -0.2273
vt 3.5678 -2.6847
vt 3.5678 -2.3354
vt 3.5678 -1.9234
vt 3.5678 -1.2803
vt 3.5678 -0.7276
vt 3.5678 0.0000
vn 0.1774 -0.9812 -0.0759
vn 0.0734 -0.9804 -0.1831
vn -0.0734 -0.9804 -0.1831
vn -0.1774 -0.9812 -0.0759
vn -0.1774 -0.9812 0.0759
vn -0.0734 -0.9804 0.1831
vn 0.0734 -0.9804 0.1831
vn 0.1774 -0.9812 0.0759
vn 0.5068 -0.8343 -0.2168
vn 0.7618 -0.5599 -0.3259
vn 0.9013 -0.1972 -0.3856
vn 0.8410 0.4041 -0.3598
vn 0.7724 0.5423 -0.3304
vn 0.6478 -0.6802 -0.3429
vn 0.6608 -0.6108 -0.4363
vn 0.6211 -0.6522 -0.4347
vn 0.6991 -0.6495 -0.2991
vn 0.7471 -0.5828 -0.3196
vn 0.6777 -0.6004 -0.4245
vn 0.2085 -0.8285 -0.5198
vn 0.2085 -0.8285 -0.5197
vn 0.3106 -0.5511 -0.7744
vn 0.3653 -0.1929 -0.9107
vn 0.3417 0.3964 -0.8521
vn 0.3148 0.5336 -0.7849
vn 0.4189 -0.5966 -0.6846
vn 0.2707 -0.6863 -0.6750
vn -0.2085 -0.8285 -0.5197
vn -0.2085 -0.8285 -0.5198
vn -0.3106 -0.5511 -0.7744
vn -0.3653 -0.1929 -0.9107
vn -0.3417 0.3964 -0.8521
vn -0.3148 0.5336 -0.7849
vn -0.3284 -0.6734 -0.6623
vn -0.4189 -0.6051 -0.6770
vn -0.4180 -0.6477 -0.6370
vn -0.2853 -0.6424 -0.7113
vn -0.3048 -0.5740 -0.7600
vn -0.4076 -0.5948 -0.6929
vn -0.5068 -0.8343 -0.2168
vn -0.7618 -0.5599 -0.3259
vn -0.9013 -0.1972 -0.3856
vn -0.8410 0.4041 -0.3598
vn -0.7724 0.5423 -0.3304
vn -0.7191 -0.5914 -0.3648
vn -0.6371 -0.6360 -0.4355
vn -0.6687 -0.6019 -0.4365
vn -0.7170 -0.6260 -0.3067
vn -0.6615 -0.6946 -0.2830
vn -0.6297 -0.6612 -0.4078
vn -0.5068 -0.8343 0.2168
vn -0.7618 -0.5599 0.3259
vn -0.9013 -0.1972 0.3856
vn -0.8410 0.4041 0.3598
vn -0.7724 0.5423 0.3304
vn -0.6478 -0.6802 0.3429
vn -0.6608 -0.6108 0.4363
vn -0.6211 -0.6522 0.4347
vn -0.6991 -0.6495 0.2991
vn -0.7471 -0.5828 0.3196
vn -0.6777 -0.6004 0.4245
vn -0.2085 -0.8285 0.5198
vn -0.2085 -0.8285 0.5197
vn -0.3106 -0.5511 0.7744
vn -0.3653 -0.1929 0.9107
vn -0.3417 0.3964 0.8521
vn -0.3148 0.5336 0.7849
vn -0.3505 -0.5842 0.7320
vn -0.4185 -0.6310 0.6532
vn -0.4189 -0.5966 0.6846
vn -0.2925 -0.6186 0.7293
vn -0.2707 -0.6863 0.6750
vn -0.3906 -0.6563 0.6455
vn 0.2085 -0.8285 0.5197
vn 0.2085 -0.8285 0.5198
vn 0.3106 -0.5511 0.7744
vn 0.3653 -0.1929 0.9107
vn 0.3417 0.3964 0.8521
vn 0.3148 0.5336 0.7849
vn 0.3284 -0.6734 0.6623
vn 0.4189 -0.6051 0.6770
vn 0.4180 -0.6477 0.6370
vn 0.2853 -0.6424 0.7113
vn 0.3048 -0.5740 0.7600
vn 0.4076 -0.5948 0.6929
vn 0.5068 -0.8343 0.2168
vn 0.7618 -0.5599 0.3259
vn 0.9013 -0.1972 0.3856
vn 0.8410 0.4041 0.3598
vn 0.7724 0.5423 0.3304
vn 0.7191 -0.5914 0.3648
vn 0.6371 -0.6360 0.4355
vn 0.6687 -0.6019 0.4365
vn 0.7170 -0.6260 0.3067
vn 0.6615 -0.6946 0.2830
vn 0.6297 -0.6612 0.4078
usemtl Tex_0168_0_png
s 1
f 1/1/1 3/2/1 2/3/1
f 4/4/2 1/5/2 2/6/2
f 5/7/3 4/4/3 2/6/3
f 6/8/4 5/7/4 2/6/4
f 7/9/5 6/8/5 2/6/5
f 8/10/6 7/9/6 2/3/6
f 9/11/7 8/10/7 2/3/7
f 3/2/8 9/11/8 2/3/8
f 3/2/9 11/12/9 10/13/9
f 3/2/9 1/1/9 11/12/9
f 10/13/10 13/14/10 12/15/10
f 10/13/10 11/12/10 13/14/10
f 12/15/11 15/16/11 14/17/11
f 12/15/11 13/14/11 15/16/11
f 14/17/12 17/18/12 16/19/12
f 14/17/12 15/16/12 17/18/12
f 16/19/13 19/20/13 18/21/13
f 16/19/13 17/18/13 19/20/13
f 18/21/14 21/22/15 20/23/16
f 18/21/17 19/20/18 21/22/19
f 1/5/20 22/24/20 11/25/20
f 1/5/21 4/4/21 22/24/21
f 11/25/22 23/26/22 13/27/22
f 11/25/22 22/24/22 23/26/22
f 13/27/23 24/28/23 15/29/23
f 13/27/23 23/26/23 24/28/23
f 15/29/24 25/30/24 17/31/24
f 15/29/24 24/28/24 25/30/24
f 17/31/25 26/32/25 19/33/25
f 17/31/25 25/30/25 26/32/25
f 19/33/26 27/34/26 21/35/26
f 19/33/27 26/32/27 27/34/27
f 4/4/28 28/36/28 22/24/28
f 4/4/29 5/7/29 28/36/29
f 22/24/30 29/37/30 23/26/30
f 22/24/30 28/36/30 29/37/30
f 23/26/31 30/38/31 24/28/31
f 23/26/31 29/37/31 30/38/31
f 24/28/32 31/39/32 25/30/32
f 24/28/32 30/38/32 31/39/32
f 25/30/33 32/40/33 26/32/33
f 25/30/33 31/39/33 32/40/33
f 26/32/34 33/41/35 27/34/36
f 26/32/37 32/40/38 33/41/39
f 5/7/40 34/42/40 28/36/40
f 5/7/40 6/8/40 34/42/40
f 28/36/41 35/43/41 29/37/41
f 28/36/41 34/42/41 35/43/41
f 29/37/42 36/44/42 30/38/42
f 29/37/42 35/43/42 36/44/42
f 30/38/43 37/45/43 31/39/43
f 30/38/43 36/44/43 37/45/43
f 31/39/44 38/46/44 32/40/44
f 31/39/44 37/45/44 38/46/44
f 32/40/45 39/47/46 33/41/47
f 32/40/48 38/46/49 39/47/50
f 6/8/51 40/48/51 34/42/51
f 6/8/51 7/9/51 40/48/51
f 34/42/52 41/49/52 35/43/52
f 34/42/52 40/48/52 41/49/52
f 35/43/53 42/50/53 36/44/53
f 35/43/53 41/49/53 42/50/53
f 36/44/54 43/51/54 37/45/54
f 36/44/54 42/50/54 43/51/54
f 37/45/55 44/52/55 38/46/55
f 37/45/55 43/51/55 44/52/55
f 38/46/56 45/53/57 39/47/58
f 38/46/59 44/52/60 45/53/61
f 7/9/62 46/54/62 40/48/62
f 7/9/63 8/10/63 46/54/63
f 40/48/64 47/55/64 41/49/64
f 40/48/64 46/54/64 47/55/64
f 41/49/65 48/56/65 42/50/65
f 41/49/65 47/55/65 48/56/65
f 42/50/66 49/57/66 43/51/66
f 42/50/66 48/56/66 49/57/66
f 43/51/67 50/58/67 44/52/67
f 43/51/67 49/57/67 50/58/67
f 44/52/68 51/59/69 45/53/70
f 44/52/71 50/58/72 51/59/73
f 8/10/74 52/60/74 46/54/74
f 8/10/75 9/11/75 52/60/75
f 46/54/76 53/61/76 47/55/76
f 46/54/76 52/60/76 53/61/76
f 47/55/77 54/62/77 48/56/77
f 47/55/77 53/61/77 54/62/77
f 48/56/78 55/63/78 49/57/78
f 48/56/78 54/62/78 55/63/78
f 49/57/79 56/64/79 50/58/79
f 49/57/79 55/63/79 56/64/79
f 50/58/80 57/65/81 51/59/82
f 50/58/83 56/64/84 57/65/85
f 9/11/86 10/13/86 52/60/86
f 9/11/86 3/2/86 10/13/86
f 52/60/87 12/15/87 53/61/87
f 52/60/87 10/13/87 12/15/87
f 53/61/88 14/17/88 54/62/88
f 53/61/88 12/15/88 14/17/88
f 54/62/89 16/19/89 55/63/89
f 54/62/89 14/17/89 16/19/89
f 55/63/90 18/21/90 56/64/90
f 55/63/90 16/19/90 18/21/90
f 56/64/91 20/23/92 57/65/93
f 56/64/94 18/21/95 20/23/96
